<svg width="731" height="941" viewBox="0 0 731 941" fill="none" xmlns="http://www.w3.org/2000/svg">
<path d="M652.3 938.214C652.3 938.214 581.736 782.074 619.732 632.907C642.831 542.19 731 437.74 731 312.267C731 206.314 657.721 4.18282e-05 390.409 4.18282e-05C203.15 4.18282e-05 95.9456 126.856 86.4605 235.599C79.0215 320.699 101.5 340.973 81.0213 377.794C53.8882 426.58 21.3078 482.344 5.03676 517.198C-11.2464 552.053 15.1245 574.363 38.9557 574.363H67.4881C75.6327 574.363 83.7368 575.529 83.7368 589.692V705.4C83.7368 745.824 91.8814 784.866 185.504 784.866C224.856 784.866 272.355 775.102 272.355 830.873V941L652.3 938.214ZM491.08 259.799L491.48 306.296L439.586 306.755L440.033 360.058L394.776 360.469L394.33 307.173L342.435 307.632L342.051 261.137L393.939 260.678L393.486 207.363L438.745 206.956L439.192 260.259L491.08 259.799ZM415.955 170.431C415.955 170.431 453.044 107.265 522.662 118.011C592.273 128.77 613.136 197.693 604.951 253.659C596.76 309.628 508.866 416.881 416.735 468.37C416.735 468.37 286.666 398.48 240.383 291.709C194.095 184.934 265.5 127.062 303.781 119.199C342.063 111.339 382.367 124.976 415.955 170.431Z" fill="#373535"/>
</svg>
