<svg width="441" height="561" viewBox="0 0 441 561" fill="none" xmlns="http://www.w3.org/2000/svg">
<path d="M393.522 559.339C393.522 559.339 350.952 466.252 373.874 377.323C387.809 323.24 441 260.969 441 186.165C441 122.999 396.792 2.00706e-05 235.527 2.00706e-05C122.557 2.00706e-05 57.8824 75.6286 52.1601 140.458C47.6724 191.192 61.2333 203.279 48.8788 225.231C32.5098 254.316 12.8546 287.561 3.03859 308.34C-6.78475 329.12 9.12433 342.421 23.5013 342.421H40.7144C45.6279 342.421 50.517 343.115 50.517 351.559V420.541C50.517 444.641 55.4305 467.917 111.911 467.917C135.652 467.917 164.307 462.096 164.307 495.345V561L393.522 559.339ZM296.26 154.886L296.502 182.606L265.195 182.88L265.464 214.657L238.162 214.902L237.892 183.129L206.585 183.402L206.354 155.683L237.657 155.41L237.384 123.625L264.687 123.382L264.957 155.159L296.26 154.886ZM250.939 101.606C250.939 101.606 273.314 63.9486 315.313 70.3551C357.308 76.7691 369.895 117.86 364.957 151.225C360.015 184.592 306.99 248.534 251.409 279.23C251.409 279.23 172.941 237.564 145.019 173.91C117.094 110.253 160.172 75.7511 183.266 71.0636C206.361 66.3773 230.676 74.5078 250.939 101.606Z" fill="#373535"/>
</svg>
