<svg width="1563" height="368" viewBox="0 0 1563 368" fill="none" xmlns="http://www.w3.org/2000/svg">
<path fill-rule="evenodd" clip-rule="evenodd" d="M1563 16.1505L1476.29 24.2257C1389.58 32.3009 1216.17 47.8746 1041.62 39.7994C868.208 32.3009 694.792 0 521.375 0C346.833 0 173.416 32.3009 86.7083 47.8746L8.24928e-05 64.0251V184H86.7083C173.416 184 346.833 184 521.375 184C694.792 184 868.208 184 1041.62 184C1216.17 184 1389.58 184 1476.29 184H1563V16.1505Z" fill="#254085"/>
<path fill-rule="evenodd" clip-rule="evenodd" d="M0 108.15L86.7082 116.226C173.416 124.301 346.833 139.875 521.375 131.799C694.792 124.301 868.208 92 1041.62 92C1216.17 92 1389.58 124.301 1476.29 139.875L1563 156.025V276H1476.29C1389.58 276 1216.17 276 1041.62 276C868.208 276 694.792 276 521.375 276C346.833 276 173.416 276 86.7082 276H0V108.15Z" fill="#2F73F7"/>
<path fill-rule="evenodd" clip-rule="evenodd" d="M1563 200.15L1476.29 208.226C1389.58 216.301 1216.17 231.875 1041.62 223.799C868.208 216.301 694.792 184 521.375 184C346.833 184 173.416 216.301 86.7082 231.875L-3.05176e-05 248.025V368H86.7082C173.416 368 346.833 368 521.375 368C694.792 368 868.208 368 1041.62 368C1216.17 368 1389.58 368 1476.29 368H1563V200.15Z" fill="#6197FF"/>
</svg>
