<svg width="1563" height="368" viewBox="0 0 1563 368" fill="none" xmlns="http://www.w3.org/2000/svg">
<path fill-rule="evenodd" clip-rule="evenodd" d="M1563 351.85L1476.29 343.774C1389.58 335.699 1216.17 320.125 1041.62 328.201C868.208 335.699 694.792 368 521.375 368C346.833 368 173.416 335.699 86.7083 320.125L8.24928e-05 303.975V184H86.7083C173.416 184 346.833 184 521.375 184C694.792 184 868.208 184 1041.62 184C1216.17 184 1389.58 184 1476.29 184H1563V351.85Z" fill="#254085"/>
<path fill-rule="evenodd" clip-rule="evenodd" d="M0 259.85L86.7082 251.774C173.416 243.699 346.833 228.125 521.375 236.201C694.792 243.699 868.208 276 1041.62 276C1216.17 276 1389.58 243.699 1476.29 228.125L1563 211.975V92H1476.29C1389.58 92 1216.17 92 1041.62 92C868.208 92 694.792 92 521.375 92C346.833 92 173.416 92 86.7082 92H0V259.85Z" fill="#2F73F7"/>
<path fill-rule="evenodd" clip-rule="evenodd" d="M1563 167.85L1476.29 159.774C1389.58 151.699 1216.17 136.125 1041.62 144.201C868.208 151.699 694.792 184 521.375 184C346.833 184 173.416 151.699 86.7082 136.125L-3.05176e-05 119.975V-6.19888e-06H86.7082C173.416 -6.19888e-06 346.833 -6.19888e-06 521.375 -6.19888e-06C694.792 -6.19888e-06 868.208 -6.19888e-06 1041.62 -6.19888e-06C1216.17 -6.19888e-06 1389.58 -6.19888e-06 1476.29 -6.19888e-06H1563V167.85Z" fill="#6197FF"/>
</svg>
